HIERARCHY
ROOT pelvis
{
  OFFSET 0 100 0
  CHANNELS 6 Xposition Yposition Zposition Zrotation Xrotation Yrotation
  JOINT pelvis_right_femur
  {
    OFFSET -10.78128 -3.44521 -0.5502486
    CHANNELS 3 Zrotation Xrotation Yrotation
    JOINT right_femur_tibia
    {
      OFFSET -0.8047443 -44.0398 -0.1307829
      CHANNELS 3 Zrotation Xrotation Yrotation
      JOINT right_tibia_foot
      {
        OFFSET 3.006224 -47.83518 -5
        CHANNELS 3 Zrotation Xrotation Yrotation
        End Site
        {
          OFFSET 0 -5 15
        }
      }
    }
  }
  JOINT pelvis_left_femur
  {
    OFFSET 10.78128 -3.44521 -0.5502486
    CHANNELS 3 Zrotation Xrotation Yrotation
    JOINT left_femur_tibia
    {
      OFFSET 0.8047443 -44.0398 -0.1307829
      CHANNELS 3 Zrotation Xrotation Yrotation
      JOINT left_tibia_foot
      {
        OFFSET -4.370144 -48.10324 -4.275266
        CHANNELS 3 Zrotation Xrotation Yrotation
        End Site
        {
          OFFSET 0 -5 15
        }
      }
    }
  }
  JOINT pelvis_spine1
  {
    OFFSET 0 6.468898 -3.129235
    CHANNELS 3 Zrotation Xrotation Yrotation
    JOINT spine1
    {
      OFFSET 0 23.15396 4.99043
      CHANNELS 3 Zrotation Xrotation Yrotation
      JOINT spine2
      {
        OFFSET 0 20.79997 -5.064912
        CHANNELS 3 Zrotation Xrotation Yrotation
        JOINT neck
        {
          OFFSET 0 14.38658 9.616178
          CHANNELS 3 Zrotation Xrotation Yrotation
          End Site
          {
            OFFSET 0 20 0
          }
        }
      }
      JOINT right_manubrium
      {
        OFFSET -5.722621 16.35077 3.967754
        CHANNELS 3 Zrotation Xrotation Yrotation
        JOINT right_clavicle
        {
          OFFSET -13.16364 1.694482 -4.693211
          CHANNELS 3 Zrotation Xrotation Yrotation
          JOINT right_humerus
          {
            OFFSET -28.5034 -0.3100689 -2.792744
            CHANNELS 3 Zrotation Xrotation Yrotation
            JOINT right_radius
            {
              OFFSET -25.15693 0.02248979 -1.271978
              CHANNELS 3 Zrotation Xrotation Yrotation
              End Site
              {
                OFFSET -15 0 0
              }
            }
          }
        }
      }
      JOINT left_manubrium
      {
        OFFSET 5.722621 16.35077 3.967754
        CHANNELS 3 Zrotation Xrotation Yrotation
        JOINT left_clavicle
        {
          OFFSET 13.16364 1.694482 -4.693211
          CHANNELS 3 Zrotation Xrotation Yrotation
          JOINT left_humerus
          {
            OFFSET 29.39168 -1.063119 -2.237045
            CHANNELS 3 Zrotation Xrotation Yrotation
            JOINT left_radius
            {
              OFFSET 24.59957 -0.9528479 0.9047498
              CHANNELS 3 Zrotation Xrotation Yrotation
              End Site
              {
                OFFSET 15 -0 -0
              }
            }
          }
        }
      }
    }
  }
}
MOTION
Frames: 23
Frame Time: 0.0416666666667
430.1506 108.8024 2871.12 0.3410918 -0.9660698 -4.663679 2.115587 -27.93778 -1.107349 -0 15.20326 -0 -7.450028 -1.116154 -0.5662629 -6.462826 13.17154 -13.88621 -0 6.931846 -0 5.635252 -20.67397 18.69397 -2.656052 -1.254956 3.29367 -0.5055072 11.85161 -5.956057 1.094202 21.6794 7.662471 7.385044 -17.41102 5.278712 5.205069 -17.39911 11.03563 85.29121 33.07508 -15.27161 -0 0 14.52673 -20.8546 11.50525 7.597591 9.815212 -24.71424 -5.398503 -87.28202 9.523019 10.81305 0 0 -16.60943 18.42161 13.84421 -11.52857
430.0301 107.6005 2875.671 0.2263081 -0.09435412 -4.308709 3.132477 -31.18491 -1.645594 -0 11.71995 -0 -8.15299 1.317243 0.57515 -6.504443 14.14848 -13.38744 -0 8.727142 -0 6.36644 -20.89789 18.37848 -2.863261 -1.339814 3.14898 -0.1171966 11.65252 -6.224646 1.067492 21.53516 7.797555 7.116726 -18.10624 5.709484 5.166775 -17.38838 11.04128 85.48773 33.5889 -15.73773 -0 0 14.09939 -20.06046 11.37739 7.540889 9.843436 -24.61742 -5.039017 -86.81252 9.731124 10.29785 0 0 -18.24913 18.77574 13.40939 -11.81873
429.8048 106.4177 2880.727 0.1582844 0.2718029 -3.838676 3.639543 -33.11936 -2.611685 -0 8.584026 -0 -8.752609 3.642459 1.331469 -6.455159 15.42032 -12.44281 -0 11.46503 -0 5.290041 -21.28753 17.04268 -2.906907 -1.253826 2.97643 0.1616905 11.49882 -6.365149 0.990167 21.54275 7.926043 6.876743 -18.65686 6.023865 4.899235 -17.2774 11.06668 85.92777 33.60059 -16.19716 -0 0 13.28765 -19.64502 11.14073 7.660832 9.730535 -24.51885 -5.004466 -86.33151 9.988947 9.759734 0 0 -19.71838 18.84838 13.02532 -11.96478
429.4538 105.3658 2886.417 0.1151978 0.2899619 -3.25495 3.912565 -33.57979 -3.498693 -0 6.288759 -0 -9.025149 5.414925 1.515509 -6.321181 16.82588 -11.17681 -0 15.40002 -0 3.023588 -21.29337 14.98421 -2.84045 -1.086585 2.798828 0.3349224 11.40174 -6.418031 0.8829581 21.65315 8.035841 6.686017 -19.02129 6.209194 4.507535 -17.10398 11.10404 86.50105 33.20636 -16.65173 -0 0 12.28813 -19.57571 10.87593 7.881864 9.557054 -24.46847 -5.199447 -85.88622 10.23547 9.218788 0 0 -20.95267 18.70268 12.74102 -11.98426
428.9767 104.6367 2892.784 -0.04554178 0.03715629 -2.638088 4.373738 -32.25914 -3.567384 -0 5.855846 -0 -8.804354 6.181343 0.8982955 -5.999742 17.88546 -9.734734 -0 21.02615 -0 0.3499279 -20.13576 12.71372 -2.685176 -0.8769127 2.644728 0.3891437 11.35909 -6.378377 0.788974 21.854 8.099009 6.546742 -19.18064 6.283916 4.081536 -16.89824 11.13691 87.07562 32.50013 -16.99333 -0 0 11.29179 -19.78698 10.64697 8.140979 9.342165 -24.42695 -5.525459 -85.59307 10.51971 8.800281 0 0 -21.63298 18.36567 12.65758 -11.82062
428.4158 104.505 2899.69 -0.5946553 -0.2199845 -2.214527 5.491752 -29.31726 -1.976201 -0 8.116014 -0 -8.141774 5.657519 -0.4845027 -5.307322 17.54785 -8.377338 -0 28.80709 -0 -1.505042 -17.03157 11.09058 -2.452587 -0.6223893 2.545479 0.2979996 11.35764 -6.208335 0.7621607 22.14393 8.086601 6.465044 -19.1189 6.278912 3.722605 -16.68196 11.14233 87.4772 31.64805 -17.01581 -0 0 10.50951 -20.19002 10.51053 8.399576 9.075023 -24.29163 -5.876921 -85.59653 10.9247 8.686684 0 0 -21.30209 17.85723 12.86408 -11.39194
427.8532 105.1861 2906.812 -1.595075 -0.1212242 -2.272511 7.265499 -25.72626 1.100067 -0 11.8327 -0 -7.688232 4.438335 -1.814246 -4.260549 14.74273 -7.313638 -0 38.93466 -0 -1.575575 -11.97226 10.64865 -2.185187 -0.3392901 2.518532 0.07904404 11.37956 -5.914726 0.8172002 22.487 7.999201 6.43799 -18.87923 6.225829 3.476071 -16.50328 11.11167 87.62249 30.84591 -16.64011 -0 0 10.08917 -20.67954 10.46377 8.632504 8.77532 -24.02374 -6.173888 -85.91548 11.42358 8.951339 0 0 -19.93652 17.26709 13.31007 -10.75972
427.3209 106.631 2913.82 -2.440044 -0.05109779 -2.879762 8.754254 -21.92446 3.682839 -0 13.81748 -0 -8.357263 3.520316 -2.14528 -3.334346 9.921915 -6.498954 -0 50.97819 -0 -0.5946536 -6.720195 11.02123 -1.928891 -0.06587614 2.550288 -0.1965213 11.40702 -5.563349 0.9178848 22.83361 7.868438 6.433896 -18.57427 6.157283 3.284521 -16.4059 11.05986 87.60626 30.15287 -16.01993 -0 0 9.973357 -21.17462 10.44257 8.833999 8.478203 -23.68322 -6.403746 -86.41608 11.92553 9.487384 0 0 -18.04221 16.69322 13.84631 -10.08012
426.7775 108.5568 2920.416 -2.45371 -1.164753 -3.85712 8.842235 -16.61263 4.203718 -0 13.22871 -0 -9.900358 2.236658 -1.856271 -2.873018 4.113096 -6.033868 -0 62.4122 -0 -0.2082975 -3.700516 11.90795 -1.702036 0.1581382 2.649073 -0.508426 11.45717 -5.195888 1.035328 23.13846 7.706499 6.464726 -18.22018 6.045575 3.129918 -16.43086 11.0033 87.47378 29.59551 -15.25909 -0 0 10.18955 -21.6795 10.42704 8.981782 8.225929 -23.35655 -6.590357 -87.03172 12.29547 10.25245 0 0 -15.8992 16.21803 14.40071 -9.49469
426.2718 110.5013 2926.347 -1.62678 -3.046096 -4.84837 7.672204 -9.639194 3.6608 -0 11.28784 -0 -10.62642 -0.5615123 -1.589749 -2.562099 -3.486355 -5.875266 -0 67.97068 -0 -0.5427934 -3.12956 12.63384 -1.475999 0.3031184 2.875596 -0.9126043 11.59591 -4.80434 1.155479 23.37008 7.48069 6.589422 -17.71216 5.779016 3.004428 -16.66605 10.96235 87.21389 29.13001 -14.34277 -0 0 10.94308 -22.31536 10.42206 9.028248 8.042308 -23.13934 -6.816145 -87.83184 12.35223 11.408 0 0 -13.35312 15.88322 15.00294 -9.100597
425.8695 111.8602 2931.668 -0.4553176 -3.827302 -5.519724 6.070498 -3.22604 2.945415 -0 8.67415 -0 -10.34971 -4.511675 -0.8154242 -1.705541 -12.78257 -5.26401 -0 64.31733 -0 -0.4088364 -3.385174 12.79969 -1.189363 0.5076786 3.220702 -1.378267 11.66813 -4.246614 1.330158 23.67295 7.163412 6.626223 -17.22668 5.553579 2.707831 -17.12081 10.9001 86.83765 28.51387 -12.93611 -0 0 11.99503 -23.02775 10.33391 9.188739 7.708399 -22.6574 -6.976551 -89.02046 12.59457 13.28673 0 0 -9.740868 15.30306 15.74213 -8.373887
425.5717 112.3553 2936.666 0.2577847 -3.504327 -5.888341 4.81296 2.630204 1.725349 -0 7.497505 -0 -10.54601 -9.065052 0.5028753 0.1462674 -21.11863 -3.84017 -0 53.84806 -0 0.3461096 -3.314802 13.19144 -0.9387529 0.7322753 3.628578 -1.757842 11.53191 -3.575061 1.542535 24.01169 6.818595 6.440328 -17.00453 5.556455 2.189594 -17.80805 10.78459 86.34728 27.90029 -11.05851 -0 0 13.17186 -23.59829 10.11648 9.595475 7.233997 -21.79781 -6.87347 -90.46038 13.11621 15.75782 0 0 -5.629378 14.48891 16.44796 -7.288732
425.4098 112.0468 2941.653 0.02132187 -4.131413 -6.184119 4.827989 8.450158 1.021032 -0 8.32831 -0 -10.6627 -12.626 0.8817199 2.703099 -25.06009 -1.958973 -0 41.03299 -0 1.11149 -2.628355 13.97169 -0.7534243 0.6270456 4.267216 -2.068662 11.61175 -3.19789 1.58348 23.90401 6.45297 6.454197 -16.58097 5.157638 1.868817 -18.91127 10.80352 85.76446 27.61007 -9.668308 -0 0 15.19601 -24.10802 9.990007 9.68877 6.99832 -21.5719 -6.892501 -91.74407 12.598 18.51156 0 0 -2.447758 14.09357 16.74913 -6.813389
425.3788 111.1892 2946.817 -0.8130088 -5.592058 -6.634106 5.792556 12.35404 1.253014 -0 9.102892 -0 -10.10242 -13.85841 0.1536066 4.537236 -24.68729 -0.8244814 -0 28.92081 -0 1.523211 -2.097586 15.02995 -0.584914 0.2020111 5.195812 -2.210418 11.97411 -3.218344 1.376664 23.30266 6.048703 6.64258 -15.89597 4.258509 1.781902 -20.4733 11.03316 85.18858 27.36501 -9.040911 -0 0 17.98716 -24.33905 9.932037 9.37285 6.84196 -22.09179 -7.151055 -92.8541 11.14467 21.73686 0 0 -0.3227427 13.80836 16.46372 -6.485749
425.4262 110.1219 2952.241 -1.544607 -6.221989 -7.222667 6.319885 14.20904 1.673507 -0 9.656183 -0 -9.224208 -14.13298 -0.5859418 4.936266 -23.42441 -0.8793447 -0 19.37027 -0 1.325927 -2.296531 16.15387 -0.481107 -0.3731863 6.188861 -2.052473 12.39412 -3.519387 0.9638064 22.50494 5.74976 6.781236 -15.21663 3.279946 1.843023 -22.154 11.38224 84.72058 26.98888 -9.007984 -0 0 20.67323 -24.0414 9.845647 8.981899 6.555099 -22.91101 -7.476689 -93.76097 9.586724 25.13781 -0 0 0.6405393 13.2667 15.65435 -5.632036
425.5454 109.0814 2957.99 -1.936673 -5.957706 -7.852657 5.970403 15.84542 1.892197 -0 11.19881 -0 -8.435449 -14.90184 -0.8553924 4.549097 -23.1291 -1.436796 -0 13.12564 -0 0.7784358 -2.620626 16.88135 -0.4695043 -0.8763127 6.875849 -1.733445 12.50728 -3.689029 0.5479386 22.00557 5.752004 6.679481 -14.82915 2.863936 1.846875 -23.44326 11.58924 84.28126 26.65076 -8.74206 -0 0 22.38646 -23.54704 9.708862 9.164128 6.118413 -23.23261 -7.552856 -94.53249 8.720482 28.1523 -0 0 1.09616 12.49131 14.88639 -4.201375
425.7289 108.223 2964.121 -1.964509 -5.635493 -8.505693 4.948461 18.06067 1.606871 -0 13.86272 -0 -8.140556 -15.82208 -0.6648338 3.60685 -23.22653 -2.478164 -0 10.23301 -0 -0.04063522 -2.807639 17.27465 -0.5252703 -1.16256 7.029402 -1.556334 12.12911 -3.416759 0.3606307 22.07369 6.069563 6.351346 -14.82526 3.286928 1.650164 -23.97218 11.44369 83.74886 26.65153 -7.629161 -0 0 22.87768 -23.47838 9.574253 10.21641 5.751351 -22.59598 -7.166769 -95.13532 8.814616 30.06089 -0 0 1.798526 11.75583 14.69362 -2.760253
425.9219 107.6402 2970.623 -1.666384 -5.945749 -9.172596 3.506103 20.45954 0.5387625 -0 17.16729 -0 -8.766474 -15.50244 -0.08990622 1.966465 -22.45317 -4.488056 -0 10.10945 -0 -1.195693 -3.203991 17.83467 -0.6089171 -1.259104 6.835111 -1.604761 11.50198 -2.875336 0.4053746 22.47525 6.472648 6.00554 -15.03121 4.107333 1.373567 -23.88303 11.07872 83.15556 26.95605 -6.075914 -0 0 22.65843 -23.8982 9.465181 11.60278 5.607492 -21.44986 -6.50407 -95.51042 9.469585 30.74591 -0 0 2.747183 11.22573 14.95705 -1.7669
426.0466 107.3754 2977.365 -1.217461 -6.984541 -9.779888 1.972883 22.18577 -0.9732159 -0 20.94318 -0 -10.29344 -12.73549 0.7523737 -0.09777394 -20.25574 -7.32307 -0 11.6281 -0 -2.400393 -4.072136 18.86313 -0.7046451 -1.245236 6.550642 -1.773038 10.93014 -2.356597 0.5599166 22.90411 6.789176 5.804864 -15.24365 4.838317 1.225405 -23.47369 10.7298 82.60447 27.35971 -4.749514 -0 0 22.18258 -24.46854 9.414704 12.70233 5.669037 -20.42247 -5.865596 -95.69036 10.224 30.54756 -0 0 3.621606 10.92496 15.36257 -1.28913
426.0534 107.4312 2984.163 -0.8238718 -8.348195 -10.21746 0.6584665 22.63183 -2.158698 -0 25.44683 -0 -12.06509 -7.564797 1.653339 -1.992949 -17.12364 -10.0713 -0 13.58761 -0 -3.214782 -5.377258 20.17487 -0.8145501 -1.145054 6.246756 -1.995396 10.50386 -1.950645 0.7698979 23.27374 6.997377 5.785535 -15.38893 5.355158 1.307806 -22.84084 10.47713 82.1264 27.79611 -3.871544 -0 0 21.51991 -24.99545 9.47646 13.32659 5.896406 -19.71889 -5.354283 -95.72713 10.93727 29.66236 -0 0 4.33338 10.84721 15.83511 -1.268178
425.9447 107.8025 2990.888 -0.5544316 -9.568727 -10.40333 -0.3059434 21.68007 -2.544867 -0 30.85657 -0 -13.34812 -1.212927 2.358655 -3.402133 -13.83018 -11.92572 -0 15.3382 -0 -3.405758 -6.840719 21.28422 -0.9328163 -0.9637524 5.9225 -2.226209 10.23647 -1.682328 1.009988 23.57122 7.114736 5.917101 -15.46957 5.672165 1.626451 -22.0206 10.32473 81.7553 28.26027 -3.485319 -0 0 20.65493 -25.36759 9.675013 13.48507 6.235983 -19.35116 -4.992135 -95.61908 11.5841 28.21159 -0 0 4.785321 10.98585 16.34446 -1.62121
425.7552 108.4942 2997.473 -0.3684136 -10.38328 -10.30128 -0.9309834 19.40339 -2.268553 -0 36.85523 -0 -13.89528 4.987681 2.726502 -4.369962 -10.67829 -12.72931 -0 16.6899 -0 -3.045843 -8.228749 21.85359 -1.040588 -0.7335043 5.586957 -2.411357 10.15914 -1.60244 1.23788 23.75822 7.159487 6.161792 -15.48924 5.789478 2.135307 -21.10339 10.27434 81.56855 28.7274 -3.666609 -0 0 19.66049 -25.49445 10.0017 13.2089 6.625157 -19.34409 -4.824008 -95.32366 12.07568 26.36847 -0 0 4.766179 11.34138 16.80024 -2.269534
425.5222 109.487 3003.865 -0.246612 -10.70618 -9.926218 -1.239022 15.71833 -1.78251 -0 42.57492 -0 -13.85616 10.09825 2.770097 -5.002179 -7.54289 -12.721 -0 17.45845 -0 -2.347123 -9.509424 21.81631 -1.123405 -0.5096089 5.255124 -2.516029 10.29812 -1.75652 1.41184 23.79091 7.152961 6.498781 -15.4413 5.69594 2.760649 -20.20039 10.32379 81.63842 29.1648 -4.473166 -0 0 18.67176 -25.36673 10.41993 12.5429 7.034719 -19.73044 -4.892016 -94.7938 12.28177 24.28741 -0 0 4.070222 11.92681 17.10727 -3.185586
